<mxfile host="app.diagrams.net" agent="Mozilla/5.0 (Windows NT 10.0; Win64; x64) AppleWebKit/537.36 (KHTML, like Gecko) Chrome/127.0.0.0 Safari/537.36" version="24.7.8">
  <diagram name="페이지-1" id="TmMRw1Ye0K6topoWtCGi">
    <mxGraphModel dx="1509" dy="813" grid="1" gridSize="10" guides="1" tooltips="1" connect="1" arrows="1" fold="1" page="1" pageScale="1" pageWidth="827" pageHeight="1169" math="0" shadow="0">
      <root>
        <mxCell id="0" />
        <mxCell id="1" parent="0" />
        <mxCell id="r1B8WvBZDqDysIyFDCDK-3" style="edgeStyle=orthogonalEdgeStyle;rounded=0;orthogonalLoop=1;jettySize=auto;html=1;exitX=1;exitY=0.5;exitDx=0;exitDy=0;" edge="1" parent="1" source="r1B8WvBZDqDysIyFDCDK-2">
          <mxGeometry relative="1" as="geometry">
            <mxPoint x="380" y="110" as="targetPoint" />
          </mxGeometry>
        </mxCell>
        <mxCell id="r1B8WvBZDqDysIyFDCDK-2" value="서버" style="rounded=0;whiteSpace=wrap;html=1;fillColor=#d5e8d4;strokeColor=#82b366;" vertex="1" parent="1">
          <mxGeometry x="100" y="80" width="80" height="60" as="geometry" />
        </mxCell>
        <mxCell id="r1B8WvBZDqDysIyFDCDK-4" value="소켓 통신 서버로 이용할 컴퓨터의 IP 및 포트 설정" style="text;html=1;align=center;verticalAlign=middle;whiteSpace=wrap;rounded=0;" vertex="1" parent="1">
          <mxGeometry x="210" y="80" width="140" height="30" as="geometry" />
        </mxCell>
        <mxCell id="r1B8WvBZDqDysIyFDCDK-9" style="edgeStyle=orthogonalEdgeStyle;rounded=0;orthogonalLoop=1;jettySize=auto;html=1;exitX=0.5;exitY=1;exitDx=0;exitDy=0;" edge="1" parent="1" source="r1B8WvBZDqDysIyFDCDK-6">
          <mxGeometry relative="1" as="geometry">
            <mxPoint x="415" y="250" as="targetPoint" />
          </mxGeometry>
        </mxCell>
        <mxCell id="r1B8WvBZDqDysIyFDCDK-6" value="소켓 생성" style="rounded=1;whiteSpace=wrap;html=1;fillColor=#d5e8d4;strokeColor=#82b366;" vertex="1" parent="1">
          <mxGeometry x="380" y="80" width="70" height="60" as="geometry" />
        </mxCell>
        <mxCell id="r1B8WvBZDqDysIyFDCDK-8" value="&lt;div&gt;IPv4 프로토콜 사용&lt;/div&gt;TCP 연결 사용&lt;div&gt;TCP 프로토콜 사용&lt;/div&gt;" style="rounded=1;whiteSpace=wrap;html=1;align=left;" vertex="1" parent="1">
          <mxGeometry x="450" y="80" width="120" height="60" as="geometry" />
        </mxCell>
        <mxCell id="r1B8WvBZDqDysIyFDCDK-10" value="IP주소 + 포트번호 바인드" style="text;html=1;align=center;verticalAlign=middle;whiteSpace=wrap;rounded=0;" vertex="1" parent="1">
          <mxGeometry x="304" y="180" width="110" height="30" as="geometry" />
        </mxCell>
        <mxCell id="r1B8WvBZDqDysIyFDCDK-22" style="edgeStyle=orthogonalEdgeStyle;rounded=0;orthogonalLoop=1;jettySize=auto;html=1;exitX=0.5;exitY=1;exitDx=0;exitDy=0;" edge="1" parent="1" source="r1B8WvBZDqDysIyFDCDK-11">
          <mxGeometry relative="1" as="geometry">
            <mxPoint x="414" y="520" as="targetPoint" />
          </mxGeometry>
        </mxCell>
        <mxCell id="r1B8WvBZDqDysIyFDCDK-11" value="리스닝" style="rounded=1;whiteSpace=wrap;html=1;fillColor=#d5e8d4;strokeColor=#82b366;" vertex="1" parent="1">
          <mxGeometry x="377.5" y="250" width="75" height="60" as="geometry" />
        </mxCell>
        <mxCell id="r1B8WvBZDqDysIyFDCDK-12" value="클라이언트가 연결 요청할 때 까지 대기 상태" style="rounded=1;whiteSpace=wrap;html=1;align=left;" vertex="1" parent="1">
          <mxGeometry x="452.5" y="250" width="129" height="60" as="geometry" />
        </mxCell>
        <mxCell id="r1B8WvBZDqDysIyFDCDK-17" style="edgeStyle=orthogonalEdgeStyle;rounded=0;orthogonalLoop=1;jettySize=auto;html=1;exitX=0.5;exitY=1;exitDx=0;exitDy=0;entryX=0.5;entryY=0;entryDx=0;entryDy=0;" edge="1" parent="1" source="r1B8WvBZDqDysIyFDCDK-15" target="r1B8WvBZDqDysIyFDCDK-19">
          <mxGeometry relative="1" as="geometry">
            <mxPoint x="860" y="310" as="targetPoint" />
          </mxGeometry>
        </mxCell>
        <mxCell id="r1B8WvBZDqDysIyFDCDK-15" value="클라이언트" style="rounded=0;whiteSpace=wrap;html=1;fillColor=#dae8fc;strokeColor=#6c8ebf;" vertex="1" parent="1">
          <mxGeometry x="820" y="150" width="80" height="60" as="geometry" />
        </mxCell>
        <mxCell id="r1B8WvBZDqDysIyFDCDK-19" value="소켓 생성" style="rounded=1;whiteSpace=wrap;html=1;fillColor=#dae8fc;strokeColor=#6c8ebf;" vertex="1" parent="1">
          <mxGeometry x="825" y="360" width="70" height="60" as="geometry" />
        </mxCell>
      </root>
    </mxGraphModel>
  </diagram>
</mxfile>
